#define vol_mute_width 16
#define vol_mute_height 16
static unsigned char vol_mute_bits[] = {
   0x00, 0x00, 0x00, 0x00, 0x00, 0x01, 0x80, 0x01, 0xc0, 0x01, 0xfc, 0x85,
   0xfc, 0x49, 0xfc, 0x31, 0xfc, 0x31, 0xfc, 0x49, 0xfc, 0x85, 0xc0, 0x01,
   0x80, 0x01, 0x00, 0x01, 0x00, 0x00, 0x00, 0x00 };
