#define vol75_width 16
#define vol75_height 16
static unsigned char vol75_bits[] = {
   0x00, 0x00, 0x00, 0x00, 0x00, 0x01, 0x80, 0x01, 0xc0, 0x09, 0xfc, 0x11,
   0xfc, 0x15, 0xfc, 0x15, 0xfc, 0x15, 0xfc, 0x15, 0xfc, 0x11, 0xc0, 0x09,
   0x80, 0x01, 0x00, 0x01, 0x00, 0x00, 0x00, 0x00 };
